<?xml version="1.0" encoding="utf-8"?>
<!-- Generator: Adobe Illustrator 19.2.1, SVG Export Plug-In . SVG Version: 6.00 Build 0)  -->
<svg version="1.1" xmlns="http://www.w3.org/2000/svg" xmlns:xlink="http://www.w3.org/1999/xlink" x="0px" y="0px"
	 viewBox="0 0 2664 2664" style="enable-background:new 0 0 2664 2664;" xml:space="preserve">
<style type="text/css">
	.st0{display:none;}
	.st1{display:inline;fill:#00D8DD;}
	.st2{fill:#F7F7F7;}
	.st3{fill:#FFFFFF;}
	.st4{fill:#00D8DD;}
	.st5{fill:#048982;}
	.st6{fill:#05938F;}
	.st7{opacity:0.5;fill:#EAEAEA;}
</style>
<g id="Layer_2" class="st0">
	<rect y="-8" class="st1" width="2678" height="2680"/>
</g>
<g id="Layer_1">
	<path class="st2" d="M1332,2550.3c-48.8,0-94.8-19-129.3-53.6l-717.5-717.5l-86.9,0c-1.1,0-2.3,0.1-3.4,0.1
		c-7.8,0-15.5-0.8-23.1-2.5c-29.8-3.3-57.1-18.2-77.8-42.5L69,1508.7l-2.6-3.3c-34.4-43.7-40.8-107.5-15.9-158.8
		c15.3-31.4,40.2-53.5,69.8-63c8.3-30.3,24.3-58.1,47.1-80.9L1202.7,167.3c34.5-34.5,80.5-53.6,129.3-53.6s94.8,19,129.3,53.6
		l1035.4,1035.4c22.9,22.9,38.9,50.7,47.1,81.1c29.5,9.6,54.3,31.7,69.5,63.1c25.1,51.7,18.8,115.9-15.7,159.8l-2.8,3.5
		l-228.4,225.6c-22.1,26-51.9,41.2-84.1,42.8l-1.9,0.1l-101.3,0l-717.9,717.9C1426.8,2531.2,1380.9,2550.3,1332,2550.3z"/>
	<g>
		<path class="st3" d="M1332,2496.3c-34.4,0-66.8-13.4-91.1-37.7L205.5,1423.1c-50.2-50.2-50.2-132,0-182.3L1240.9,205.5
			c24.3-24.3,56.7-37.7,91.1-37.7s66.8,13.4,91.1,37.7l1035.4,1035.4c50.2,50.3,50.2,132,0,182.3L1423.1,2458.5
			C1398.8,2482.9,1366.4,2496.3,1332,2496.3z"/>
		<path class="st3" d="M1332,2496.3c-34.4,0-66.8-13.4-91.1-37.7L205.5,1423.1c-50.2-50.2-50.2-132,0-182.3L1240.9,205.5
			c24.3-24.3,56.7-37.7,91.1-37.7s66.8,13.4,91.1,37.7l1035.4,1035.4c50.2,50.3,50.2,132,0,182.3L1423.1,2458.5
			C1398.8,2482.9,1366.4,2496.3,1332,2496.3z"/>
		<g>
			<path class="st4" d="M1331.1,2396.5c-20.2,0-39.2-7.7-53.5-21.6L263.4,1383.8c-14.2-13.8-22-32.2-22-51.8s7.8-37.9,22-51.8
				l1014.2-991.1c14.3-13.9,33.3-21.6,53.5-21.6s39.2,7.7,53.5,21.6l1014.2,991.1c14.1,13.8,21.9,32.2,21.9,51.8s-7.8,38-21.9,51.8
				l-1014.2,991.1C1370.4,2388.8,1351.4,2396.5,1331.1,2396.5z"/>
			<path class="st5" d="M1331.1,283c16.2,0,31.3,6.1,42.7,17.2L2388,1291.3c11.1,10.9,17.3,25.3,17.3,40.7s-6.1,29.8-17.3,40.7
				l-1014.2,991.1c-11.4,11.1-26.5,17.2-42.7,17.2c-16.2,0-31.3-6.1-42.7-17.2L274.3,1372.7c-11.1-10.9-17.3-25.3-17.3-40.7
				c0-15.3,6.1-29.8,17.3-40.7l1014.2-991.1C1299.8,289.1,1315,283,1331.1,283 M1331.1,252c-24.3,0-47.1,9.2-64.3,26L252.6,1269.1
				c-17.2,16.8-26.6,39.1-26.6,62.9c0,23.8,9.5,46.1,26.6,62.9L1266.8,2386c17.2,16.8,40,26,64.3,26c24.3,0,47.1-9.2,64.3-26
				l1014.2-991.1c35.5-34.7,35.5-91.1,0-125.7L1395.5,278C1378.3,261.2,1355.4,252,1331.1,252L1331.1,252z"/>
		</g>
		<path class="st3" d="M1136.2,2101.2c-14.7,0-28.9-5.8-38.8-16c-9.4-9.7-14.1-22-13.7-35.7l0.3-1440.2l0.1-1.3
			c0.9-13,6.6-25.4,16.1-34.7l134-131.9c10.4-10.2,24-15.8,38.5-15.8c14.7,0,28.9,5.8,38.8,16c9.4,9.7,14.1,22,13.7,35.7l-0.6,280
			l0.3,1160.1l-0.1,1.3c-0.9,13-6.6,25.4-16.1,34.7l-134,131.9C1164.3,2095.6,1150.7,2101.2,1136.2,2101.2z"/>
		<path class="st3" d="M1136.2,2087.5c-11.1,0-21.6-4.3-29-11.8c-6.8-7-10.2-15.9-9.8-25.9l0.3-1440l0.1-0.9
			c0.7-9.7,5-18.9,12.1-25.9l134-131.9c7.8-7.7,18.1-11.9,28.9-11.9c11.1,0,21.6,4.3,29,11.8c6.8,7,10.2,15.9,9.8,25.9l-0.6,280.3
			l0.3,1159.7l-0.1,0.9c-0.7,9.7-5,18.9-12.1,25.9l-134,131.9C1157.3,2083.3,1147,2087.5,1136.2,2087.5z"/>
		<path class="st6" d="M1136.2,2062.3c-4.2,0-8.4-1.6-10.9-4.2c-1.9-2-2.8-4.3-2.6-7.3l0-0.5l0.3-1439.7c0.2-3.5,1.9-7,4.6-9.7
			l134-131.9c3.9-3.8,8.3-4.6,11.2-4.6c4.2,0,8.4,1.6,10.9,4.2c1.9,2,2.8,4.3,2.6,7.3l0,0.5l-0.6,280.8l0.3,1158.9
			c-0.2,3.5-1.9,7-4.6,9.7l-134,131.9C1143.5,2061.5,1139.2,2062.3,1136.2,2062.3C1136.2,2062.3,1136.2,2062.3,1136.2,2062.3z"/>
		<path class="st3" d="M1356.7,1213.1c-21.5,0-40.4-12.6-48-32c-7.3-18.7-2.6-39,12.3-52.9l224.3-223.8L1321,680.4
			c-14.9-13.9-19.7-34.2-12.3-52.9c7.6-19.4,26.4-32,48-32h164c12.8,0,25,4.5,34.4,12.8l1,0.9l260,259.8c10,9.4,15.5,21.9,15.5,35.4
			c0,13.5-5.5,26.1-15.5,35.4l-260,259.6l-1,0.9c-9.4,8.2-21.7,12.8-34.4,12.8H1356.7z"/>
		<path class="st3" d="M1356.7,1199.4c-15.9,0-29.7-9.2-35.2-23.3c-5.3-13.5-1.8-28,9.1-38l234.2-233.7l-234.2-233.8
			c-10.9-10-14.3-24.6-9.1-38.1c5.5-14.2,19.4-23.3,35.2-23.3h164c9.4,0,18.5,3.3,25.4,9.4l0.6,0.6l259.9,259.6
			c7.3,6.8,11.3,15.9,11.3,25.6c0,9.7-4,18.8-11.4,25.6l-259.9,259.5l-0.6,0.6c-7,6.1-16,9.4-25.4,9.4H1356.7z"/>
		<path class="st6" d="M1356.7,1174.2c-8.3,0-11.1-5.6-11.8-7.3c-1-2.6-1.4-6.6,2.7-10.4l0.4-0.3l252.4-251.9l-252.5-252l-0.4-0.3
			c-4.1-3.8-3.7-7.7-2.7-10.4c0.7-1.7,3.5-7.3,11.8-7.3h164c3.3,0,6.5,1.2,8.8,3.2L1789.1,897l0.3,0.3c2.7,2.5,3.3,5.3,3.3,7.1
			c0,1.9-0.6,4.6-3.3,7.1l-0.3,0.3L1529.5,1171c-2.3,2-5.5,3.2-8.8,3.2H1356.7z"/>
		<path class="st5" d="M1600.1,904l0.3,0.3L1348,1156.2l-0.4,0.3c-4.1,3.8-3.7,7.7-2.7,10.4c0.7,1.7,3.5,7.3,11.8,7.3h164
			c3.3,0,6.5-1.2,8.8-3.2l259.6-259.2l0.3-0.3c2.7-2.5,3.3-5.3,3.3-7.1c0-0.1,0-0.2,0-0.3H1600.1z"/>
	</g>
	<path class="st7" d="M394.9,1725.3c-4.9,0-9.7-0.6-14.4-1.9c-17.6-1.1-34.1-10.1-46.5-25.5l-224.5-225.1l-0.7-0.8
		c-21.5-27.4-25.6-69.2-9.7-101.8c11.7-24.1,31.7-37.9,54.8-37.9c0.8,0,1.7,0,2.5,0.1l375.9,1.1l1975.5-0.9c0.8,0,1.6-0.1,2.4-0.1
		c23,0,43,13.8,54.7,37.9c16,33,12.1,75.3-9.6,102.8l-0.7,0.9l-227.8,225.1c-12.6,15.5-29.3,24.5-47.1,25.5l-0.5,0l-1881.8,0.5
		C396.5,1725.3,395.7,1725.3,394.9,1725.3z"/>
	<path class="st2" d="M2508.1,1350.6l-1976,0.9l-376.3-1.1c-44.1-2.3-65,69.7-33,110.5l224.5,225c9.3,11.9,21.8,18.9,34.6,19.6
		l1.3,0c4.2,1.4,8.8,2,13.6,1.8l1881.8-0.5c12.8-0.7,25.3-7.7,34.6-19.6l227.8-225C2573.2,1421.4,2552.3,1348.3,2508.1,1350.6z"/>
	<path class="st5" d="M2130.6,1654.1v-34h20.8v-92.3l-52.6-99.1h-17.2v-34h65.1v34h-8.2l32.6,62.5l33.3-62.5h-8.1v-34h64.1v34h-14.9
		l-55.5,99.2v92.2h21.5v34H2130.6z M2033.8,1654.1v-34h13.2l-48-77.2l-27.4,16.8v60.4h21.5v34h-80.9v-34h20.8v-191.4h-20.8v-34
		l54.9,0l83.9,35.6l0.8,0.4c22.2,10.6,24.3,12.1,24.3,32.3l0,16.3c-0.4,19.8-3.1,22-46.5,45.1l60.1,95.9h21.1v34H2033.8z
		 M1971.6,1520.1l71.5-40.3v-15.7l-71.5-32.3V1520.1z M1745.9,1654.1v-34h20.8v-191.4h-20.8v-34h80.9v34h-21.5v191.4h57.9v-38.7h34
		v72.7H1745.9z M1501.5,1654.1l-51.1-96.6l-51.1,96.6h-44.3v-34h21.1l53.5-102l-46.9-89.4h-22.1v-34h45.6l43.8,84.5l44.4-84.5h44.9
		v34h-21.8l-47.2,89.4l54.1,102h20.5v34H1501.5z M1256.4,1654.1v-34h20.8v-191.4h-20.8v-34h80.9v34h-21.5v191.4h21.5v34H1256.4z
		 M1079.2,1654.1v-34h20.8v-191.4h-20.8v-34l54.9,0l83.9,35.6l0.8,0.4c22.2,10.6,24.3,12.1,24.3,32.3l0,16.3
		c-0.4,20.6-3.3,22.2-51.8,47.9l-52.6,32.6v60.5h21.5v34H1079.2z M1138.6,1520.1l71.5-40.3v-15.7l-71.5-32.3V1520.1z M815.8,1654.1
		v-34h20.8v-191.4h-20.8v-34h166.6v72.7h-34v-38.7h-73.1v74.4h35.1v-23.5h34v80.9h-34v-23.5h-35.1v83h73.1v-38.7h34v72.7H815.8z
		 M710.3,1654.1v-34h20.2v-83H650v83h20.2v34h-79.6v-34h20.8v-191.4h-20.8v-34h79.6v34H650v74.8h80.4v-74.8h-20.2v-34h79.6v34H769
		v191.4h20.8v34H710.3z M448.2,1654.1v-34h20.8v-191.4h-30.1v39h-35.3v-73h169.9v73h-35.7v-39h-30.1v191.4h21.5v34H448.2z
		 M1561.7,1653v-34h20.8v-191.4h-20.8v-34h166.6v72.7h-34v-38.7h-73.1v74.4h35.1v-23.5h34v80.9h-34V1536h-35.1v83h73.1v-38.7h34
		v72.7H1561.7z"/>
	<path class="st6" d="M2284.2,1574.3c-1.5,0-2-1-2.2-1.3c-0.2-0.5-0.3-1.2,0.5-1.9l0.1-0.1l46.2-46.1l-46.2-46.2l-0.1-0.1
		c-0.7-0.7-0.7-1.4-0.5-1.9c0.1-0.3,0.6-1.3,2.2-1.3h30c0.6,0,1.2,0.2,1.6,0.6l47.6,47.5l0.1,0.1c0.5,0.5,0.6,1,0.6,1.3
		c0,0.3-0.1,0.8-0.6,1.3l-0.1,0.1l-47.6,47.5c-0.4,0.4-1,0.6-1.6,0.6H2284.2z"/>
	<path class="st6" d="M378.8,1574.3c1.5,0,2-1,2.2-1.3c0.2-0.5,0.3-1.2-0.5-1.9l-0.1-0.1l-46.2-46.1l46.2-46.2l0.1-0.1
		c0.7-0.7,0.7-1.4,0.5-1.9c-0.1-0.3-0.6-1.3-2.2-1.3h-30c-0.6,0-1.2,0.2-1.6,0.6l-47.6,47.5l-0.1,0.1c-0.5,0.5-0.6,1-0.6,1.3
		c0,0.3,0.1,0.8,0.6,1.3l0.1,0.1l47.6,47.5c0.4,0.4,1,0.6,1.6,0.6H378.8z"/>
	<path class="st5" d="M2328.5,1525.3l-45.9,45.8l-0.1,0.1c-0.7,0.7-0.7,1.4-0.5,1.9c0.1,0.3,0.6,1.3,2.2,1.3h30
		c0.6,0,1.2-0.2,1.6-0.6l47.6-47.5l0.1-0.1c0.3-0.3,0.5-0.6,0.6-0.9H2328.5z"/>
	<path class="st5" d="M380.4,1571l-46.1-46h-35.3c0,0.3,0.1,0.8,0.6,1.2l0.1,0.1l47.6,47.5c0.4,0.4,1,0.6,1.6,0.6h30
		c1.5,0,2-1,2.2-1.3C381.1,1572.5,381.2,1571.8,380.4,1571L380.4,1571z"/>
	<g>
		<polygon class="st6" points="1582.5,1516 1690.2,1516 1690.2,1480.5 1656.2,1480.5 1656.2,1504 1621.1,1504 1621.1,1429.6 
			1694.2,1429.6 1694.2,1468.2 1728.2,1468.2 1728.2,1395.6 1561.7,1395.6 1561.7,1429.6 1582.5,1429.6 		"/>
		<polygon class="st6" points="1766.7,1516 1805.4,1516 1805.4,1429.7 1826.8,1429.7 1826.8,1395.7 1745.9,1395.7 1745.9,1429.7 
			1766.7,1429.7 		"/>
		<polygon class="st6" points="1428.1,1516 1472.1,1516 1517.7,1429.7 1539.5,1429.7 1539.5,1395.7 1494.5,1395.7 1450.1,1480.2 
			1406.3,1395.7 1360.7,1395.7 1360.7,1429.7 1382.8,1429.7 		"/>
		<path class="st6" d="M1933,1516h38.6v-83.2l71.5,32.3v15.7l-62.4,35.2h66c26.9-14.9,28.9-19,29.3-35.8l0-16.3
			c0-20.2-2.1-21.7-24.3-32.3l-0.8-0.4l-83.9-35.6l-54.9,0v34h20.8V1516z"/>
		<polygon class="st6" points="2144.6,1516 2197.2,1516 2245.5,1429.7 2260.4,1429.7 2260.4,1395.7 2196.3,1395.7 2196.3,1429.7 
			2204.4,1429.7 2171.1,1492.2 2138.5,1429.7 2146.7,1429.7 2146.7,1395.7 2081.6,1395.7 2081.6,1429.7 2098.8,1429.7 		"/>
		<polygon class="st6" points="611.4,1516 769,1516 769,1429.7 789.9,1429.7 789.9,1395.7 710.3,1395.7 710.3,1429.7 730.4,1429.7 
			730.4,1504.4 650,1504.4 650,1429.7 670.2,1429.7 670.2,1395.7 590.6,1395.7 590.6,1429.7 611.4,1429.7 		"/>
		<polygon class="st6" points="438.9,1429.7 469.1,1429.7 469.1,1516 507.7,1516 507.7,1429.7 537.8,1429.7 537.8,1468.7 
			573.5,1468.7 573.5,1395.7 403.6,1395.7 403.6,1468.7 438.9,1468.7 		"/>
		<polygon class="st6" points="836.6,1516 944.4,1516 944.4,1480.6 910.4,1480.6 910.4,1504.1 875.3,1504.1 875.3,1429.7 
			948.4,1429.7 948.4,1468.3 982.4,1468.3 982.4,1395.7 815.8,1395.7 815.8,1429.7 836.6,1429.7 		"/>
		<polygon class="st6" points="1277.3,1516 1315.9,1516 1315.9,1429.7 1337.4,1429.7 1337.4,1395.7 1256.4,1395.7 1256.4,1429.7 
			1277.3,1429.7 		"/>
		<path class="st6" d="M1100,1516h38.6v-83.2l71.5,32.3v15.7l-62.4,35.2h66c26.9-14.9,28.9-19,29.3-35.8l0-16.3
			c0-20.2-2.1-21.7-24.3-32.3l-0.8-0.4l-83.9-35.6l-54.9,0v34h20.8V1516z"/>
	</g>
</g>
</svg>
