<?xml version="1.0" encoding="utf-8"?>
<!-- Generator: Adobe Illustrator 19.2.1, SVG Export Plug-In . SVG Version: 6.00 Build 0)  -->
<svg version="1.1" xmlns="http://www.w3.org/2000/svg" xmlns:xlink="http://www.w3.org/1999/xlink" x="0px" y="0px"
	 viewBox="0 0 55.9 55.9" style="enable-background:new 0 0 55.9 55.9;" xml:space="preserve">
<style type="text/css">
	.st0{display:none;}
	.st1{display:inline;fill:#33CCCC;}
	.st2{display:inline;}
	.st3{fill:#33CCCC;}
</style>
<g id="Calendar" class="st0">
	<rect x="27.1" y="-9.6" transform="matrix(3.319266e-03 -1 1 3.319266e-03 10.5559 45.293)" class="st1" width="1.8" height="54"/>
	<path class="st1" d="M53.7,55.9H2.1C1,55.9,0,55,0,53.8V8.1C0,6.9,1,6,2.1,6v1.8c-0.2,0-0.4,0.2-0.4,0.4v45.7
		c0,0.2,0.2,0.4,0.4,0.4h51.6c0.2,0,0.4-0.2,0.4-0.4V8.1c0-0.2-0.2-0.4-0.4-0.4V6c1.2,0,2.1,0.9,2.1,2.1v45.7
		C55.9,55,54.9,55.9,53.7,55.9z"/>
	<g class="st2">
		<g>
			<g>
				<path class="st3" d="M20.3,31.4h-4.7c-1.1,0-1.9-0.9-1.9-1.9v-4.7c0-1.1,0.9-1.9,1.9-1.9h4.7c1.1,0,1.9,0.9,1.9,1.9v4.7
					C22.2,30.5,21.3,31.4,20.3,31.4z M15.6,23.9c-0.5,0-0.9,0.4-0.9,0.9v4.7c0,0.5,0.4,0.9,0.9,0.9h4.7c0.5,0,0.9-0.4,0.9-0.9v-4.7
					c0-0.5-0.4-0.9-0.9-0.9H15.6z"/>
			</g>
			<g>
				<path class="st3" d="M20.3,40.9h-4.7c-1.1,0-1.9-0.9-1.9-1.9v-4.7c0-1.1,0.9-1.9,1.9-1.9h4.7c1.1,0,1.9,0.9,1.9,1.9v4.7
					C22.2,40,21.3,40.9,20.3,40.9z M15.6,33.4c-0.5,0-0.9,0.4-0.9,0.9v4.7c0,0.5,0.4,0.9,0.9,0.9h4.7c0.5,0,0.9-0.4,0.9-0.9v-4.7
					c0-0.5-0.4-0.9-0.9-0.9H15.6z"/>
			</g>
			<g>
				<path class="st3" d="M20.3,50.4h-4.7c-1.1,0-1.9-0.9-1.9-1.9v-4.7c0-1.1,0.9-1.9,1.9-1.9h4.7c1.1,0,1.9,0.9,1.9,1.9v4.7
					C22.2,49.5,21.3,50.4,20.3,50.4z M15.6,42.9c-0.5,0-0.9,0.4-0.9,0.9v4.7c0,0.5,0.4,0.9,0.9,0.9h4.7c0.5,0,0.9-0.4,0.9-0.9v-4.7
					c0-0.5-0.4-0.9-0.9-0.9H15.6z"/>
			</g>
			<g>
				<path class="st3" d="M30.3,31.4h-4.7c-1.1,0-1.9-0.9-1.9-1.9v-4.7c0-1.1,0.9-1.9,1.9-1.9h4.7c1.1,0,1.9,0.9,1.9,1.9v4.7
					C32.2,30.5,31.3,31.4,30.3,31.4z M25.6,23.9c-0.5,0-0.9,0.4-0.9,0.9v4.7c0,0.5,0.4,0.9,0.9,0.9h4.7c0.5,0,0.9-0.4,0.9-0.9v-4.7
					c0-0.5-0.4-0.9-0.9-0.9H25.6z"/>
			</g>
			<g>
				<path class="st3" d="M30.3,40.9h-4.7c-1.1,0-1.9-0.9-1.9-1.9v-4.7c0-1.1,0.9-1.9,1.9-1.9h4.7c1.1,0,1.9,0.9,1.9,1.9v4.7
					C32.2,40,31.3,40.9,30.3,40.9z M25.6,33.4c-0.5,0-0.9,0.4-0.9,0.9v4.7c0,0.5,0.4,0.9,0.9,0.9h4.7c0.5,0,0.9-0.4,0.9-0.9v-4.7
					c0-0.5-0.4-0.9-0.9-0.9H25.6z"/>
			</g>
			<g>
				<path class="st3" d="M30.3,50.4h-4.7c-1.1,0-1.9-0.9-1.9-1.9v-4.7c0-1.1,0.9-1.9,1.9-1.9h4.7c1.1,0,1.9,0.9,1.9,1.9v4.7
					C32.2,49.5,31.3,50.4,30.3,50.4z M25.6,42.9c-0.5,0-0.9,0.4-0.9,0.9v4.7c0,0.5,0.4,0.9,0.9,0.9h4.7c0.5,0,0.9-0.4,0.9-0.9v-4.7
					c0-0.5-0.4-0.9-0.9-0.9H25.6z"/>
			</g>
			<g>
				<path class="st3" d="M40.3,31.4h-4.7c-1.1,0-1.9-0.9-1.9-1.9v-4.7c0-1.1,0.9-1.9,1.9-1.9h4.7c1.1,0,1.9,0.9,1.9,1.9v4.7
					C42.2,30.5,41.3,31.4,40.3,31.4z M35.6,23.9c-0.5,0-0.9,0.4-0.9,0.9v4.7c0,0.5,0.4,0.9,0.9,0.9h4.7c0.5,0,0.9-0.4,0.9-0.9v-4.7
					c0-0.5-0.4-0.9-0.9-0.9H35.6z"/>
			</g>
			<g>
				<path class="st3" d="M40.3,40.9h-4.7c-1.1,0-1.9-0.9-1.9-1.9v-4.7c0-1.1,0.9-1.9,1.9-1.9h4.7c1.1,0,1.9,0.9,1.9,1.9v4.7
					C42.2,40,41.3,40.9,40.3,40.9z M35.6,33.4c-0.5,0-0.9,0.4-0.9,0.9v4.7c0,0.5,0.4,0.9,0.9,0.9h4.7c0.5,0,0.9-0.4,0.9-0.9v-4.7
					c0-0.5-0.4-0.9-0.9-0.9H35.6z"/>
			</g>
			<g>
				<path class="st3" d="M10.3,40.9H5.6c-1.1,0-1.9-0.9-1.9-1.9v-4.7c0-1.1,0.9-1.9,1.9-1.9h4.7c1.1,0,1.9,0.9,1.9,1.9v4.7
					C12.2,40,11.3,40.9,10.3,40.9z M5.6,33.4c-0.5,0-0.9,0.4-0.9,0.9v4.7c0,0.5,0.4,0.9,0.9,0.9h4.7c0.5,0,0.9-0.4,0.9-0.9v-4.7
					c0-0.5-0.4-0.9-0.9-0.9H5.6z"/>
			</g>
			<g>
				<path class="st3" d="M10.3,50.4H5.6c-1.1,0-1.9-0.9-1.9-1.9v-4.7c0-1.1,0.9-1.9,1.9-1.9h4.7c1.1,0,1.9,0.9,1.9,1.9v4.7
					C12.2,49.5,11.3,50.4,10.3,50.4z M5.6,42.9c-0.5,0-0.9,0.4-0.9,0.9v4.7c0,0.5,0.4,0.9,0.9,0.9h4.7c0.5,0,0.9-0.4,0.9-0.9v-4.7
					c0-0.5-0.4-0.9-0.9-0.9H5.6z"/>
			</g>
		</g>
		<g>
			<path class="st3" d="M50.3,31.4h-4.7c-1.1,0-1.9-0.9-1.9-1.9v-4.7c0-1.1,0.9-1.9,1.9-1.9h4.7c1.1,0,1.9,0.9,1.9,1.9v4.7
				C52.2,30.5,51.3,31.4,50.3,31.4z M45.6,23.9c-0.5,0-0.9,0.4-0.9,0.9v4.7c0,0.5,0.4,0.9,0.9,0.9h4.7c0.5,0,0.9-0.4,0.9-0.9v-4.7
				c0-0.5-0.4-0.9-0.9-0.9H45.6z"/>
		</g>
		<g>
			<path class="st3" d="M50.3,40.9h-4.7c-1.1,0-1.9-0.9-1.9-1.9v-4.7c0-1.1,0.9-1.9,1.9-1.9h4.7c1.1,0,1.9,0.9,1.9,1.9v4.7
				C52.2,40,51.3,40.9,50.3,40.9z M45.6,33.4c-0.5,0-0.9,0.4-0.9,0.9v4.7c0,0.5,0.4,0.9,0.9,0.9h4.7c0.5,0,0.9-0.4,0.9-0.9v-4.7
				c0-0.5-0.4-0.9-0.9-0.9H45.6z"/>
		</g>
	</g>
	<g class="st2">
		<path class="st3" d="M9.4,14.2c-1.6,0-2.8-1.3-2.8-2.8V2.8C6.6,1.3,7.9,0,9.4,0s2.8,1.3,2.8,2.8v8.5C12.3,12.9,11,14.2,9.4,14.2z
			 M9.4,1.8c-0.6,0-1.1,0.5-1.1,1.1v8.5c0,0.6,0.5,1.1,1.1,1.1s1.1-0.5,1.1-1.1V2.8C10.5,2.2,10,1.8,9.4,1.8z"/>
		<path class="st3" d="M49.3,6.9h-1.8v-4c0-0.6-0.5-1.1-1.1-1.1c-0.6,0-1.1,0.5-1.1,1.1v4h-1.8v-4c0-1.6,1.3-2.8,2.8-2.8
			c1.6,0,2.8,1.3,2.8,2.8V6.9z"/>
		<path class="st3" d="M53.7,55.9H2.1C1,55.9,0,55,0,53.8V8.1C0,6.9,1,6,2.1,6h6.2v5.3c0,0.6,0.5,1.1,1.1,1.1s1.1-0.5,1.1-1.1V6
			h34.9v5.3c0,0.6,0.5,1.1,1.1,1.1c0.6,0,1.1-0.5,1.1-1.1V6h6.2c1.2,0,2.1,0.9,2.1,2.1v45.7C55.9,55,54.9,55.9,53.7,55.9z M2.1,7.7
			c-0.2,0-0.4,0.2-0.4,0.4v45.7c0,0.2,0.2,0.4,0.4,0.4h51.6c0.2,0,0.4-0.2,0.4-0.4V8.1c0-0.2-0.2-0.4-0.4-0.4h-4.4v3.6
			c0,1.6-1.3,2.8-2.8,2.8c-1.6,0-2.8-1.3-2.8-2.8V7.7H12.3v3.6c0,1.6-1.3,2.8-2.8,2.8s-2.8-1.3-2.8-2.8V7.7H2.1z"/>
		<path class="st3" d="M46.5,14.2c-1.6,0-2.8-1.3-2.8-2.8V6.9h1.8v4.5c0,0.6,0.5,1.1,1.1,1.1c0.6,0,1.1-0.5,1.1-1.1V6.9h1.8v4.5
			C49.3,12.9,48.1,14.2,46.5,14.2z"/>
	</g>
</g>
<g id="Payment" class="st0">
	<g class="st2">
		<path class="st3" d="M11.1,43.6H8.5c-1.1,0-1.9-0.9-1.9-1.9V39c0-1.1,0.9-1.9,1.9-1.9h2.7c1.1,0,1.9,0.9,1.9,1.9v2.7
			C13,42.8,12.2,43.6,11.1,43.6z M8.5,38.1c-0.5,0-0.9,0.4-0.9,0.9v2.7c0,0.5,0.4,0.9,0.9,0.9h2.7c0.5,0,0.9-0.4,0.9-0.9V39
			c0-0.5-0.4-0.9-0.9-0.9H8.5z"/>
	</g>
	<g class="st2">
		<path class="st3" d="M12.4,49.7H7c-0.3,0-0.5-0.2-0.5-0.5s0.2-0.5,0.5-0.5h5.3c0.3,0,0.5,0.2,0.5,0.5S12.7,49.7,12.4,49.7z"/>
		<path class="st3" d="M21,49.7h-5.3c-0.3,0-0.5-0.2-0.5-0.5s0.2-0.5,0.5-0.5H21c0.3,0,0.5,0.2,0.5,0.5S21.3,49.7,21,49.7z"/>
		<path class="st3" d="M29.7,49.7h-5.3c-0.3,0-0.5-0.2-0.5-0.5s0.2-0.5,0.5-0.5h5.3c0.3,0,0.5,0.2,0.5,0.5S30,49.7,29.7,49.7z"/>
		<path class="st3" d="M38.4,49.7H33c-0.3,0-0.5-0.2-0.5-0.5s0.2-0.5,0.5-0.5h5.3c0.3,0,0.5,0.2,0.5,0.5S38.7,49.7,38.4,49.7z"/>
	</g>
	<rect x="33.1" y="-4.6" transform="matrix(0.5072 -0.8619 0.8619 0.5072 1.9469 37.7029)" class="st1" width="1.7" height="43.5"/>
	<path class="st1" d="M41.2,55.9H4.3C1.9,55.9,0,54,0,51.7V31.8c0-2.3,1.9-4.3,4.3-4.3h36.9c2.3,0,4.3,1.9,4.3,4.3v19.9
		C45.4,54,43.5,55.9,41.2,55.9z M4.3,29.2c-1.4,0-2.5,1.1-2.5,2.5v19.9c0,1.4,1.1,2.5,2.5,2.5h36.9c1.4,0,2.5-1.1,2.5-2.5V31.8
		c0-1.4-1.1-2.5-2.5-2.5H4.3z"/>
	<path class="st1" d="M43.7,44.9V31.8c0-1.4-1.1-2.5-2.5-2.5H14.7L7.6,25c-2-1.2-2.7-3.8-1.5-5.8L16.3,2.1c1.2-2,3.8-2.7,5.8-1.5
		l31.7,18.9c1,0.6,1.7,1.5,1.9,2.6c0.3,1.1,0.1,2.2-0.5,3.2L43.7,44.9z M15.2,27.5h26c2.3,0,4.3,1.9,4.3,4.3v6.8l8.4-14.1
		c0.3-0.6,0.4-1.2,0.3-1.9c-0.2-0.6-0.6-1.2-1.1-1.5L21.2,2.1C20,1.4,18.5,1.8,17.8,3L7.6,20.1c-0.7,1.2-0.3,2.7,0.9,3.4L15.2,27.5z
		"/>
</g>
<g id="Location">
	<path class="st3" d="M34.9,55.9H0V19.6c0-1.3,1-2.3,2.3-2.3h30.1c1.4,0,2.6,1.2,2.6,2.6V55.9z M1.7,54.2h31.4V19.9
		c0-0.5-0.4-0.8-0.8-0.8H2.3c-0.3,0-0.5,0.2-0.5,0.5V54.2z"/>
	<g>
		<path class="st3" d="M18.5,30.4h-2c-1.1,0-1.9-0.9-1.9-1.9v-2c0-1.1,0.9-1.9,1.9-1.9h2c1.1,0,1.9,0.9,1.9,1.9v2
			C20.4,29.6,19.5,30.4,18.5,30.4z M16.5,25.6c-0.5,0-0.9,0.4-0.9,0.9v2c0,0.5,0.4,0.9,0.9,0.9h2c0.5,0,0.9-0.4,0.9-0.9v-2
			c0-0.5-0.4-0.9-0.9-0.9H16.5z"/>
		<path class="st3" d="M28.1,30.4h-2c-1.1,0-1.9-0.9-1.9-1.9v-2c0-1.1,0.9-1.9,1.9-1.9h2c1.1,0,1.9,0.9,1.9,1.9v2
			C30,29.6,29.2,30.4,28.1,30.4z M26.1,25.6c-0.5,0-0.9,0.4-0.9,0.9v2c0,0.5,0.4,0.9,0.9,0.9h2c0.5,0,0.9-0.4,0.9-0.9v-2
			c0-0.5-0.4-0.9-0.9-0.9H26.1z"/>
		<path class="st3" d="M18.5,40h-2c-1.1,0-1.9-0.9-1.9-1.9v-2c0-1.1,0.9-1.9,1.9-1.9h2c1.1,0,1.9,0.9,1.9,1.9v2
			C20.4,39.1,19.5,40,18.5,40z M16.5,35.2c-0.5,0-0.9,0.4-0.9,0.9v2c0,0.5,0.4,0.9,0.9,0.9h2c0.5,0,0.9-0.4,0.9-0.9v-2
			c0-0.5-0.4-0.9-0.9-0.9H16.5z"/>
		<path class="st3" d="M28.1,40h-2c-1.1,0-1.9-0.9-1.9-1.9v-2c0-1.1,0.9-1.9,1.9-1.9h2c1.1,0,1.9,0.9,1.9,1.9v2
			C30,39.1,29.2,40,28.1,40z M26.1,35.2c-0.5,0-0.9,0.4-0.9,0.9v2c0,0.5,0.4,0.9,0.9,0.9h2c0.5,0,0.9-0.4,0.9-0.9v-2
			c0-0.5-0.4-0.9-0.9-0.9H26.1z"/>
		<path class="st3" d="M18.5,49.5h-2c-1.1,0-1.9-0.9-1.9-1.9v-2c0-1.1,0.9-1.9,1.9-1.9h2c1.1,0,1.9,0.9,1.9,1.9v2
			C20.4,48.7,19.5,49.5,18.5,49.5z M16.5,44.7c-0.5,0-0.9,0.4-0.9,0.9v2c0,0.5,0.4,0.9,0.9,0.9h2c0.5,0,0.9-0.4,0.9-0.9v-2
			c0-0.5-0.4-0.9-0.9-0.9H16.5z"/>
		<path class="st3" d="M28.1,49.5h-2c-1.1,0-1.9-0.9-1.9-1.9v-2c0-1.1,0.9-1.9,1.9-1.9h2c1.1,0,1.9,0.9,1.9,1.9v2
			C30,48.7,29.2,49.5,28.1,49.5z M26.1,44.7c-0.5,0-0.9,0.4-0.9,0.9v2c0,0.5,0.4,0.9,0.9,0.9h2c0.5,0,0.9-0.4,0.9-0.9v-2
			c0-0.5-0.4-0.9-0.9-0.9H26.1z"/>
		<path class="st3" d="M8.8,30.4h-2c-1.1,0-1.9-0.9-1.9-1.9v-2c0-1.1,0.9-1.9,1.9-1.9h2c1.1,0,1.9,0.9,1.9,1.9v2
			C10.7,29.6,9.9,30.4,8.8,30.4z M6.8,25.6c-0.5,0-0.9,0.4-0.9,0.9v2c0,0.5,0.4,0.9,0.9,0.9h2c0.5,0,0.9-0.4,0.9-0.9v-2
			c0-0.5-0.4-0.9-0.9-0.9H6.8z"/>
		<path class="st3" d="M8.8,40h-2c-1.1,0-1.9-0.9-1.9-1.9v-2c0-1.1,0.9-1.9,1.9-1.9h2c1.1,0,1.9,0.9,1.9,1.9v2
			C10.7,39.1,9.9,40,8.8,40z M6.8,35.2c-0.5,0-0.9,0.4-0.9,0.9v2c0,0.5,0.4,0.9,0.9,0.9h2c0.5,0,0.9-0.4,0.9-0.9v-2
			c0-0.5-0.4-0.9-0.9-0.9H6.8z"/>
		<path class="st3" d="M8.8,49.5h-2c-1.1,0-1.9-0.9-1.9-1.9v-2c0-1.1,0.9-1.9,1.9-1.9h2c1.1,0,1.9,0.9,1.9,1.9v2
			C10.7,48.7,9.9,49.5,8.8,49.5z M6.8,44.7c-0.5,0-0.9,0.4-0.9,0.9v2c0,0.5,0.4,0.9,0.9,0.9h2c0.5,0,0.9-0.4,0.9-0.9v-2
			c0-0.5-0.4-0.9-0.9-0.9H6.8z"/>
	</g>
	<path class="st3" d="M55.9,55.9H34v-1.8h20.1V2.6c0-0.5-0.4-0.8-0.8-0.8H23.3c-0.3,0-0.5,0.2-0.5,0.5v15.9H21V2.3C21,1,22,0,23.3,0
		h30.1c1.4,0,2.6,1.2,2.6,2.6V55.9z"/>
	<g>
		<path class="st3" d="M39.5,30.4h-2c-1.1,0-1.9-0.9-1.9-1.9v-2c0-1.1,0.9-1.9,1.9-1.9h2c1.1,0,1.9,0.9,1.9,1.9v2
			C41.4,29.6,40.5,30.4,39.5,30.4z M37.5,25.6c-0.5,0-0.9,0.4-0.9,0.9v2c0,0.5,0.4,0.9,0.9,0.9h2c0.5,0,0.9-0.4,0.9-0.9v-2
			c0-0.5-0.4-0.9-0.9-0.9H37.5z"/>
		<path class="st3" d="M49.1,30.4h-2c-1.1,0-1.9-0.9-1.9-1.9v-2c0-1.1,0.9-1.9,1.9-1.9h2c1.1,0,1.9,0.9,1.9,1.9v2
			C51,29.6,50.2,30.4,49.1,30.4z M47.1,25.6c-0.5,0-0.9,0.4-0.9,0.9v2c0,0.5,0.4,0.9,0.9,0.9h2c0.5,0,0.9-0.4,0.9-0.9v-2
			c0-0.5-0.4-0.9-0.9-0.9H47.1z"/>
		<path class="st3" d="M39.5,40h-2c-1.1,0-1.9-0.9-1.9-1.9v-2c0-1.1,0.9-1.9,1.9-1.9h2c1.1,0,1.9,0.9,1.9,1.9v2
			C41.4,39.1,40.5,40,39.5,40z M37.5,35.2c-0.5,0-0.9,0.4-0.9,0.9v2c0,0.5,0.4,0.9,0.9,0.9h2c0.5,0,0.9-0.4,0.9-0.9v-2
			c0-0.5-0.4-0.9-0.9-0.9H37.5z"/>
		<path class="st3" d="M49.1,40h-2c-1.1,0-1.9-0.9-1.9-1.9v-2c0-1.1,0.9-1.9,1.9-1.9h2c1.1,0,1.9,0.9,1.9,1.9v2
			C51,39.1,50.2,40,49.1,40z M47.1,35.2c-0.5,0-0.9,0.4-0.9,0.9v2c0,0.5,0.4,0.9,0.9,0.9h2c0.5,0,0.9-0.4,0.9-0.9v-2
			c0-0.5-0.4-0.9-0.9-0.9H47.1z"/>
		<path class="st3" d="M39.5,49.5h-2c-1.1,0-1.9-0.9-1.9-1.9v-2c0-1.1,0.9-1.9,1.9-1.9h2c1.1,0,1.9,0.9,1.9,1.9v2
			C41.4,48.7,40.5,49.5,39.5,49.5z M37.5,44.7c-0.5,0-0.9,0.4-0.9,0.9v2c0,0.5,0.4,0.9,0.9,0.9h2c0.5,0,0.9-0.4,0.9-0.9v-2
			c0-0.5-0.4-0.9-0.9-0.9H37.5z"/>
		<path class="st3" d="M49.1,49.5h-2c-1.1,0-1.9-0.9-1.9-1.9v-2c0-1.1,0.9-1.9,1.9-1.9h2c1.1,0,1.9,0.9,1.9,1.9v2
			C51,48.7,50.2,49.5,49.1,49.5z M47.1,44.7c-0.5,0-0.9,0.4-0.9,0.9v2c0,0.5,0.4,0.9,0.9,0.9h2c0.5,0,0.9-0.4,0.9-0.9v-2
			c0-0.5-0.4-0.9-0.9-0.9H47.1z"/>
	</g>
	<g>
		<path class="st3" d="M39.5,11.4h-2c-1.1,0-1.9-0.9-1.9-1.9v-2c0-1.1,0.9-1.9,1.9-1.9h2c1.1,0,1.9,0.9,1.9,1.9v2
			C41.4,10.6,40.5,11.4,39.5,11.4z M37.5,6.6c-0.5,0-0.9,0.4-0.9,0.9v2c0,0.5,0.4,0.9,0.9,0.9h2c0.5,0,0.9-0.4,0.9-0.9v-2
			c0-0.5-0.4-0.9-0.9-0.9H37.5z"/>
		<path class="st3" d="M49.1,11.4h-2c-1.1,0-1.9-0.9-1.9-1.9v-2c0-1.1,0.9-1.9,1.9-1.9h2c1.1,0,1.9,0.9,1.9,1.9v2
			C51,10.6,50.2,11.4,49.1,11.4z M47.1,6.6c-0.5,0-0.9,0.4-0.9,0.9v2c0,0.5,0.4,0.9,0.9,0.9h2c0.5,0,0.9-0.4,0.9-0.9v-2
			c0-0.5-0.4-0.9-0.9-0.9H47.1z"/>
		<path class="st3" d="M39.5,21h-2c-1.1,0-1.9-0.9-1.9-1.9v-2c0-1.1,0.9-1.9,1.9-1.9h2c1.1,0,1.9,0.9,1.9,1.9v2
			C41.4,20.1,40.5,21,39.5,21z M37.5,16.2c-0.5,0-0.9,0.4-0.9,0.9v2c0,0.5,0.4,0.9,0.9,0.9h2c0.5,0,0.9-0.4,0.9-0.9v-2
			c0-0.5-0.4-0.9-0.9-0.9H37.5z"/>
		<path class="st3" d="M49.1,21h-2c-1.1,0-1.9-0.9-1.9-1.9v-2c0-1.1,0.9-1.9,1.9-1.9h2c1.1,0,1.9,0.9,1.9,1.9v2
			C51,20.1,50.2,21,49.1,21z M47.1,16.2c-0.5,0-0.9,0.4-0.9,0.9v2c0,0.5,0.4,0.9,0.9,0.9h2c0.5,0,0.9-0.4,0.9-0.9v-2
			c0-0.5-0.4-0.9-0.9-0.9H47.1z"/>
		<path class="st3" d="M29.8,11.4h-2c-1.1,0-1.9-0.9-1.9-1.9v-2c0-1.1,0.9-1.9,1.9-1.9h2c1.1,0,1.9,0.9,1.9,1.9v2
			C31.7,10.6,30.9,11.4,29.8,11.4z M27.8,6.6c-0.5,0-0.9,0.4-0.9,0.9v2c0,0.5,0.4,0.9,0.9,0.9h2c0.5,0,0.9-0.4,0.9-0.9v-2
			c0-0.5-0.4-0.9-0.9-0.9H27.8z"/>
	</g>
	<g>
		<path class="st3" d="M31.7,18.7h-5.8v-1.7c0-1.1,0.9-1.9,1.9-1.9h2c1.1,0,1.9,0.9,1.9,1.9V18.7z M26.9,17.7h3.8v-0.7
			c0-0.5-0.4-0.9-0.9-0.9h-2c-0.5,0-0.9,0.4-0.9,0.9V17.7z"/>
	</g>
</g>
</svg>
